<?xml version="1.0" encoding="UTF-8"?>
<svg xmlns="http://www.w3.org/2000/svg" viewBox="0 0 115 780.76">
  <defs>
    <style>
      .cls-1 {
        fill: none;
        stroke-linecap: round;
        stroke-miterlimit: 10;
      }

      .cls-1, .cls-2 {
        stroke: #fff;
        stroke-width: 4px;
      }

      .cls-2 {
        fill: #fff;
        stroke-linejoin: round;
      }
    </style>
  </defs>
  <g id="Layer_3" data-name="Layer 3">
    <path class="cls-1" d="M61.29,2c75.38,94.46,58.17,209.29,12.88,312.21-6.21,14.12-15.14,28.04-28.99,34.83s-33.4,3.63-40.6-10.02c-6.23-11.82-.62-27.73,10.69-34.84s26.55-6.08,38.13,.59c34.7,20.01,46.42,74.01,33.63,109.62-8.27,23.01-23.09,42.97-35.11,64.25-12.03,21.28-21.54,45.6-17.59,69.73,4.96,30.31,29.55,53.09,43.71,80.34,25.08,48.26,9.97,92.97-13.49,137.3"/>
  </g>
  <g id="Layer_2" data-name="Layer 2">
    <path class="cls-2" d="M57.53,778.75l14.51-9.12c.06-.04,.06-.13,0-.17l-15.15-8.01c-.07-.04-.15,.01-.14,.09l.64,17.13c0,.08,.09,.12,.15,.08Z"/>
  </g>
</svg>