<?xml version="1.0" encoding="UTF-8"?>
<svg id="Layer_2" data-name="Layer 2" xmlns="http://www.w3.org/2000/svg" viewBox="0 0 241.57 484.54">
  <defs>
    <style>
      .cls-1 {
        fill: none;
        stroke-linecap: round;
      }

      .cls-1, .cls-2 {
        stroke: #fff;
        stroke-linejoin: round;
        stroke-width: 4px;
      }

      .cls-2 {
        fill: #fff;
      }
    </style>
  </defs>
  <path class="cls-2" d="M10.75,482.49l8.57-14.84c.04-.07,0-.15-.08-.15H2.1c-.08,0-.12,.08-.08,.15l8.57,14.84c.04,.07,.13,.07,.17,0Z"/>
  <path class="cls-1" d="M33.13,2C6.7,33.82-.53,83.26,18.72,120.46c9.47,18.3,30.23,35.5,45.5,48.9,16.8,14.73,35.06,27.79,54.44,38.91,25.69,14.74,61.43,36.31,91.88,25.14,2.22-.81,22.99-8.78,27.98-27.54,6.17-23.19-16.92-43.53-17.92-44.38-17.57-15.03-40.23-13.78-48.25-13.33-61.55,3.42-127.78,81.49-154.46,161.27C-2.14,369.35,1.61,425.82,10.53,467.89"/>
</svg>